# xmcd
#
# Track frame offsets: 
#        150
#        17956
#        29111
#        48565
#        66401
#        84932
#        104892
#        119643
#        159884
#        185469
#        200494
#        214457
#        236600
#        259630
#
# Disc length: 3804 seconds
#
# Revision: 0
# Processed by: cddbd v1.5.2PL0 Copyright (c) Steve Scherf et al.
# Submitted via: ExactAudioCopy v0.99pb4
#
DISCID=d40eda0e
DTITLE=The Dalton Brothers Blues Gang - Let it roll
DYEAR=2000
DGENRE=Blues
TTITLE0=You better look out
TTITLE1=The hustle is on
TTITLE2=Fever
TTITLE3=I love the life I live
TTITLE4=Let it roll
TTITLE5=The night is a hunter
TTITLE6=Cheatin on you
TTITLE7=You need meat (don't go no further)
TTITLE8=Caldonia
TTITLE9=It should have been me
TTITLE10=One more lonely night
TTITLE11=Boom Boom
TTITLE12=Roll over Beethoven
TTITLE13=Georgia
EXTD=
EXTT0=
EXTT1=
EXTT2=
EXTT3=
EXTT4=
EXTT5=
EXTT6=
EXTT7=
EXTT8=
EXTT9=
EXTT10=
EXTT11=
EXTT12=
EXTT13=
PLAYORDER=
